PathFileType	4	(X/Y/Z)	D:\Share\Shared_Data\Ergonomics\Sit To Stand Pertubation\S3\Perturbed.trc
DataRate	CameraRate	NumFrames	NumMarkers	Units	OrigDataRate	OrigDataStartFrame	OrigNumFrames	
100	100	6	18	m	100	3916	231
Frame#	Time	R_ASIS			R_Pelvis			V_Sacral			L_Pelvis			L_ASIS			Clavical			R_Acromium			L_Acromium			Sternum			Torso			R_Thigh_Med			R_Thigh_Lat			R_Thigh			R_Shank_Med			R_Shank_Lat			R_Shank			R_Heel			R_Toe			
		X1	Y1	Z1	X2	Y2	Z2	X3	Y3	Z3	X4	Y4	Z4	X5	Y5	Z5	X6	Y6	Z6	X7	Y7	Z7	X8	Y8	Z8	X9	Y9	Z9	X10	Y10	Z10	X11	Y11	Z11	X12	Y12	Z12	X13	Y13	Z13	X14	Y14	Z14	X15	Y15	Z15	X16	Y16	Z16	X17	Y17	Z17	X18	Y18	Z18	

3916	39.15	0.13299379	0.61800653	0.1503399	0.034216373	0.66889062	0.20861868	-0.063871288	0.71875867	0.018515566	0.042991093	0.68829236	-0.19419617	0.13513394	0.62235022	-0.13768768	0.33796771	0.96774164	-0.0049971156	0.33730276	1.0470762	0.15291284	0.33405878	1.0446117	-0.14846602	0.32522394	0.88147992	0.0016718075	0.33193011	0.9490036	-0.064422249	0.40384015	0.45676398	0.091153427	0.38245975	0.43261011	0.20579401	0.23662724	0.58492017	0.11756899	0.29097192	0.10626244	0.10159007	0.26615881	0.095253227	0.18108426	0.30701639	0.26610477	0.20749368	0.20989851	0.048659203	0.1321781	0.4288093	0.055434669	0.13674873
3917	39.16	0.13751437	0.61999139	0.15031201	0.039357269	0.6715708	0.20896156	-0.058743504	0.72233838	0.018860334	0.047806068	0.69107196	-0.19410918	0.13940417	0.62433392	-0.13751735	0.34460324	0.96837976	-0.0051441832	0.34492609	1.0476439	0.15265613	0.34135681	1.0454465	-0.14843065	0.33158978	0.88229614	0.0017549146	0.33846756	0.94965503	-0.064396492	0.40670447	0.45653873	0.090160538	0.38558466	0.43170389	0.20432364	0.24129614	0.58569965	0.11686664	0.29124844	0.10607796	0.10121573	0.26636859	0.095312531	0.18075804	0.30856525	0.26603104	0.20644203	0.20991833	0.048815434	0.13224649	0.42894778	0.055230656	0.1366823
3918	39.17	0.14189009	0.62219556	0.15022331	0.044288841	0.67443402	0.20918306	-0.053710747	0.72609619	0.019149426	0.052528927	0.694005	-0.19404604	0.14362949	0.62654779	-0.13736571	0.35085422	0.96960321	-0.0052471991	0.35197867	1.0487719	0.15250528	0.34806635	1.0468033	-0.1484328	0.33760065	0.88368561	0.0018750519	0.34462866	0.95090216	-0.064378548	0.40950558	0.45614478	0.089137245	0.38863062	0.430827	0.20290596	0.24597777	0.58654871	0.11615086	0.29150259	0.1059137	0.10086526	0.26657516	0.095402435	0.18043433	0.31006372	0.26597516	0.20545566	0.20993701	0.048992851	0.13233006	0.42907458	0.055048386	0.13661383
3919	39.18	0.14615619	0.62465033	0.15008134	0.049044678	0.67752191	0.20928951	-0.048757286	0.73006976	0.019379839	0.057188835	0.69712646	-0.19400711	0.14782239	0.62901764	-0.13723108	0.35673917	0.97142273	-0.0053078628	0.35844501	1.0505157	0.15245079	0.35421866	1.0487	-0.1484644	0.34326334	0.88565436	0.0020068555	0.35043567	0.95275446	-0.064371368	0.41223563	0.45557382	0.088131706	0.39154486	0.42998846	0.20160611	0.25062805	0.58748785	0.11548636	0.29173218	0.10577203	0.1005501	0.26677139	0.09551371	0.18012685	0.3114978	0.26592218	0.20458307	0.20995627	0.049164017	0.13240912	0.4291882	0.054887863	0.13654944
3920	39.19	0.15034036	0.62739099	0.14989885	0.053660511	0.6808689	0.20929973	-0.043873638	0.73428748	0.019550364	0.061814217	0.70046771	-0.19399408	0.15199219	0.63177014	-0.1371078	0.36228012	0.97383984	-0.0053308554	0.36432996	1.0529071	0.15247969	0.35984982	1.0511399	-0.14852435	0.34860614	0.88820337	0.0021277001	0.35591183	0.955211	-0.064380936	0.41489984	0.45487088	0.087207405	0.3942811	0.42919913	0.20047299	0.25521138	0.58853778	0.11492493	0.29193597	0.10565427	0.10027826	0.2669538	0.095632507	0.17985237	0.31285794	0.26586075	0.20385669	0.20997574	0.04931105	0.13247339	0.42928784	0.054749023	0.13649368
3921	39.2	0.15445522	0.63045105	0.14968781	0.058168747	0.68450201	0.20924152	-0.039057816	0.73876971	0.01966494	0.066427734	0.70405316	-0.19400946	0.1561449	0.63483002	-0.13698708	0.36749963	0.97684845	-0.0053227777	0.36966205	1.0559508	0.15257713	0.36499957	1.0541144	-0.14861717	0.35365857	0.89132739	0.0022132716	0.36107855	0.95826178	-0.064413864	0.41751114	0.45410046	0.086424614	0.39680313	0.42847052	0.19953708	0.25970038	0.58971606	0.11450334	0.29211398	0.10556099	0.10005414	0.26712192	0.09574437	0.1796243	0.31413663	0.26578415	0.20329225	0.20999399	0.049426151	0.13252029	0.42937354	0.054631382	0.13644949
